<?xml version="1.0" encoding="utf-8"?>
<svg version="1.1" xmlns:xlink="http://www.w3.org/1999/xlink" width="20px" height="12px" xmlns="http://www.w3.org/2000/svg">
  <g transform="matrix(1 0 0 1 -26 -322 )">
    <path d="M 14.8493303571429 9.40104166666668  C 16.3411458333334 8.55729166666668  17.5818452380952 7.42361111111115  18.5714285714286 6  C 17.4404761904762 4.36111111111109  16.0230654761905 3.13541666666665  14.3191964285714 2.32291666666668  C 14.7730654761905 3.04513888888891  15 3.82638888888885  15 4.66666666666668  C 15 5.95138888888891  14.5107886904762 7.05034722222224  13.5323660714286 7.96354166666664  C 12.553943452381 8.87673611111115  11.3764880952381 9.33333333333336  10 9.33333333333336  C 8.62351190476188 9.33333333333336  7.44605654761901 8.87673611111115  6.46763392857136 7.96354166666664  C 5.48921130952382 7.05034722222224  5 5.95138888888891  5 4.66666666666668  C 5 3.82638888888885  5.22693452380948 3.04513888888891  5.68080357142864 2.32291666666668  C 3.97693452380948 3.13541666666665  2.55952380952382 4.36111111111109  1.42857142857136 6  C 2.41815476190476 7.42361111111115  3.6588541666666 8.55729166666668  5.15066964285712 9.40104166666668  C 6.64248511904764 10.2447916666667  8.25892857142864 10.6666666666667  10 10.6666666666667  C 11.7410714285714 10.6666666666667  13.3575148809524 10.2447916666667  14.8493303571429 9.40104166666668  Z M 10.3794642857142 2.35416666666671  C 10.483630952381 2.25694444444444  10.5357142857142 2.13888888888885  10.5357142857142 1.99999999999993  C 10.5357142857142 1.86111111111102  10.483630952381 1.74305555555553  10.3794642857142 1.64583333333336  C 10.2752976190476 1.54861111111109  10.1488095238095 1.5  10 1.5  C 9.06994047619052 1.5  8.27194940476188 1.81076388888885  7.60602678571424 2.43229166666664  C 6.9401041666666 3.05381944444444  6.60714285714288 3.79861111111109  6.60714285714288 4.66666666666668  C 6.60714285714288 4.80555555555559  6.65922619047618 4.92361111111109  6.76339285714288 5.02083333333336  C 6.86755952380948 5.11805555555553  6.99404761904764 5.16666666666671  7.14285714285712 5.16666666666671  C 7.2916666666666 5.16666666666671  7.41815476190476 5.11805555555553  7.52232142857136 5.02083333333336  C 7.62648809523812 4.92361111111109  7.67857142857136 4.80555555555559  7.67857142857136 4.66666666666668  C 7.67857142857136 4.06944444444447  7.90550595238099 3.55902777777773  8.359375 3.13541666666665  C 8.813244047619 2.71180555555556  9.360119047619 2.50000000000006  10 2.50000000000006  C 10.1488095238095 2.50000000000006  10.2752976190476 2.45138888888898  10.3794642857142 2.35416666666671  Z M 19.7767857142858 5.28124999999994  C 19.9255952380952 5.52430555555556  20 5.76388888888891  20 6  C 20 6.23611111111109  19.9255952380952 6.47569444444444  19.7767857142858 6.71875000000006  C 18.735119047619 8.31597222222224  17.3344494047619 9.59548611111102  15.5747767857142 10.5572916666667  C 13.8151041666666 11.5190972222222  11.9568452380952 12  10 12  C 8.04315476190476 12  6.1848958333334 11.517361111111  4.42522321428576 10.5520833333334  C 2.66555059523811 9.58680555555559  1.26488095238099 8.3090277777778  0.223214285714241 6.71875000000006  C 0.0744047619047644 6.47569444444444  0 6.23611111111109  0 6  C 0 5.76388888888891  0.0744047619047644 5.52430555555556  0.223214285714241 5.28124999999994  C 1.26488095238099 3.6909722222222  2.66555059523811 2.41319444444441  4.42522321428576 1.44791666666664  C 6.1848958333334 0.482638888888979  8.04315476190476 0  10 0  C 11.9568452380952 0  13.8151041666666 0.482638888888979  15.5747767857142 1.44791666666664  C 17.3344494047619 2.41319444444441  18.735119047619 3.6909722222222  19.7767857142858 5.28124999999994  Z " fill-rule="nonzero" fill="#aaaaaa" stroke="none" transform="matrix(1 0 0 1 26 322 )" />
  </g>
</svg>