<?xml version="1.0" encoding="utf-8"?>
<svg version="1.1" xmlns:xlink="http://www.w3.org/1999/xlink" width="20px" height="20px" xmlns="http://www.w3.org/2000/svg">
  <g transform="matrix(1 0 0 1 -26 -381 )">
    <path d="M 16.484375 8.4765625  C 16.640625 8.3203125  16.71875 8.125  16.71875 7.890625  C 16.71875 7.64756944444447  16.640625 7.4479166666667  16.484375 7.2916666666667  L 15.2994791666667 6.1197916666667  C 15.1345486111111 5.95486111111106  14.9392361111111 5.8723958333333  14.7135416666667 5.8723958333333  C 14.4878472222222 5.8723958333333  14.2925347222222 5.95486111111106  14.1276041666667 6.1197916666667  L 8.81510416666669 11.4192708333333  L 5.87239583333331 8.4765625  C 5.70746527777778 8.31163194444447  5.51215277777778 8.2291666666667  5.28645833333331 8.2291666666667  C 5.06076388888891 8.2291666666667  4.86545138888891 8.31163194444447  4.70052083333331 8.4765625  L 3.515625 9.6484375  C 3.359375 9.8046875  3.28125 10.0043402777778  3.28125 10.2473958333333  C 3.28125 10.4817708333333  3.359375 10.6770833333333  3.515625 10.8333333333333  L 8.22916666666669 15.546875  C 8.39409722222222 15.7118055555555  8.58940972222222 15.7942708333333  8.81510416666669 15.7942708333333  C 9.04947916666669 15.7942708333333  9.24913194444444 15.7118055555555  9.4140625 15.546875  L 16.484375 8.4765625  Z M 18.6588541666667 4.98046875  C 19.5529513888889 6.51258680555553  20 8.18576388888883  20 10  C 20 11.8142361111111  19.5529513888889 13.4874131944445  18.6588541666667 15.01953125  C 17.7647569444444 16.5516493055555  16.5516493055556 17.7647569444445  15.01953125 18.6588541666667  C 13.4874131944444 19.5529513888889  11.8142361111111 20  10 20  C 8.18576388888891 20  6.51258680555556 19.5529513888889  4.98046875 18.6588541666667  C 3.44835069444444 17.7647569444445  2.23524305555556 16.5516493055555  1.34114583333331 15.01953125  C 0.447048611111091 13.4874131944445  0 11.8142361111111  0 10  C 0 8.18576388888883  0.447048611111091 6.51258680555553  1.34114583333331 4.98046875  C 2.23524305555556 3.44835069444447  3.44835069444444 2.23524305555553  4.98046875 1.3411458333333  C 6.51258680555556 0.447048611111065  8.18576388888891 0  10 0  C 11.8142361111111 0  13.4874131944444 0.447048611111065  15.01953125 1.3411458333333  C 16.5516493055556 2.23524305555553  17.7647569444444 3.44835069444447  18.6588541666667 4.98046875  Z " fill-rule="nonzero" fill="#aaaaaa" stroke="none" transform="matrix(1 0 0 1 26 381 )" />
  </g>
</svg>