<?xml version="1.0" encoding="utf-8"?>
<svg version="1.1" xmlns:xlink="http://www.w3.org/1999/xlink" width="20px" height="20px" xmlns="http://www.w3.org/2000/svg">
  <g transform="matrix(1 0 0 1 -26 -255 )">
    <path d="M 15 9.2838541666666  C 15.2777777777778 9.4401041666666  15.4166666666667 9.67881944444447  15.4166666666667 10  C 15.4166666666667 10.3211805555555  15.2777777777778 10.5598958333334  15 10.7161458333334  L 7.91666666666669 14.8828125  C 7.78645833333331 14.9609375  7.64756944444444 15  7.5 15  C 7.36111111111109 15  7.22222222222222 14.9652777777778  7.08333333333331 14.8958333333334  C 6.80555555555556 14.7309027777778  6.66666666666669 14.4878472222222  6.66666666666669 14.1666666666666  L 6.66666666666669 5.8333333333334  C 6.66666666666669 5.51215277777777  6.80555555555556 5.26909722222223  7.08333333333331 5.1041666666666  C 7.36979166666669 4.9479166666666  7.64756944444444 4.95225694444447  7.91666666666669 5.1171875  L 15 9.2838541666666  Z M 16.1328125 13.5546875  C 16.7664930555556 12.4696180555555  17.0833333333333 11.2847222222222  17.0833333333333 10  C 17.0833333333333 8.71527777777777  16.7664930555556 7.53038194444447  16.1328125 6.4453125  C 15.4991319444444 5.36024305555553  14.6397569444444 4.50086805555553  13.5546875 3.8671875  C 12.4696180555556 3.23350694444447  11.2847222222222 2.9166666666666  10 2.9166666666666  C 8.71527777777778 2.9166666666666  7.53038194444444 3.23350694444447  6.4453125 3.8671875  C 5.36024305555556 4.50086805555553  4.50086805555556 5.36024305555553  3.8671875 6.4453125  C 3.23350694444444 7.53038194444447  2.91666666666669 8.71527777777777  2.91666666666669 10  C 2.91666666666669 11.2847222222222  3.23350694444444 12.4696180555555  3.8671875 13.5546875  C 4.50086805555556 14.6397569444445  5.36024305555556 15.4991319444445  6.4453125 16.1328125  C 7.53038194444444 16.7664930555555  8.71527777777778 17.0833333333334  10 17.0833333333334  C 11.2847222222222 17.0833333333334  12.4696180555556 16.7664930555555  13.5546875 16.1328125  C 14.6397569444444 15.4991319444445  15.4991319444444 14.6397569444445  16.1328125 13.5546875  Z M 18.6588541666667 4.98046875  C 19.5529513888889 6.51258680555553  20 8.18576388888883  20 10  C 20 11.8142361111112  19.5529513888889 13.4874131944445  18.6588541666667 15.01953125  C 17.7647569444444 16.5516493055555  16.5516493055556 17.7647569444445  15.01953125 18.6588541666666  C 13.4874131944444 19.5529513888888  11.8142361111111 20  10 20  C 8.18576388888891 20  6.51258680555556 19.5529513888888  4.98046875 18.6588541666666  C 3.44835069444444 17.7647569444445  2.23524305555556 16.5516493055555  1.34114583333331 15.01953125  C 0.447048611111091 13.4874131944445  0 11.8142361111112  0 10  C 0 8.18576388888883  0.447048611111091 6.51258680555553  1.34114583333331 4.98046875  C 2.23524305555556 3.44835069444447  3.44835069444444 2.23524305555553  4.98046875 1.3411458333334  C 6.51258680555556 0.447048611111169  8.18576388888891 0  10 0  C 11.8142361111111 0  13.4874131944444 0.447048611111169  15.01953125 1.3411458333334  C 16.5516493055556 2.23524305555553  17.7647569444444 3.44835069444447  18.6588541666667 4.98046875  Z " fill-rule="nonzero" fill="#aaaaaa" stroke="none" transform="matrix(1 0 0 1 26 255 )" />
  </g>
</svg>