<?xml version="1.0" standalone="no"?><!DOCTYPE svg PUBLIC "-//W3C//DTD SVG 1.1//EN" "http://www.w3.org/Graphics/SVG/1.1/DTD/svg11.dtd"><svg class="icon" width="32px" height="32.00px" viewBox="0 0 1024 1024" version="1.1" xmlns="http://www.w3.org/2000/svg"><path d="M858.4 819.9v77c0 14.2-11.5 25.7-25.7 25.7H370.9c-14.2 0-25.7-11.5-25.7-25.7V229.8c0-14.2 11.5-25.7 25.7-25.7h77v-77c0-14.2 11.5-25.7 25.7-25.7h461.8c14.2 0 25.7 11.5 25.7 25.7v667.1c0 14.2-11.5 25.7-25.7 25.7h-77z m0-51.3h38.5c7.1 0 12.8-5.7 12.8-12.8V165.6c0-7.1-5.7-12.8-12.8-12.8H512c-7.1 0-12.8 5.7-12.8 12.8v38.5h333.5c14.2 0 25.7 11.5 25.7 25.7v538.8z m-449-513.2c-7.1 0-12.8 5.7-12.8 12.8v590.1c0 7.1 5.7 12.8 12.8 12.8h384.9c7.1 0 12.8-5.7 12.8-12.8v-590c0-7.1-5.7-12.8-12.8-12.8H409.4z" fill="#999999" /><path d="M114.3 409.4h564.5c28.3 0 51.3 23 51.3 51.3v282.2c0 28.3-23 51.3-51.3 51.3H114.3c-28.3 0-51.3-23-51.3-51.3V460.7c0-28.4 23-51.3 51.3-51.3z" fill="#F25257" /><path d="M157.9 508.4h75.9c44.1 0 66.5 18.7 66.5 56.2 0 37.7-22.3 56.7-67 56.7H188v70.3h-30V508.4z m30.1 25.7v61.6h43.6c13.3 0 23.1-2.6 29.2-7.2 6.2-4.9 9.2-12.8 9.2-23.9 0-11-3.3-18.7-9.5-23.3-6.2-4.9-15.9-7.2-29-7.2H188z m138-25.7h67c29.8 0 52.1 8.2 67.5 24.6 14.6 15.4 22.1 37.7 22.1 67 0 29-7.4 51.3-22.1 67-15.4 16.4-37.7 24.6-67.5 24.6h-67V508.4z m30 25.7V666h31.3c22.8 0 39.5-5.4 50-15.9 10.3-10.8 15.4-27.5 15.4-50 0-23.1-5.1-40-15.4-50.3-10.5-10.5-27.2-15.7-50-15.7H356z m154.7-25.7h125v25.7h-94.9v50.8h89.5v25.7h-89.5v81.1h-30V508.4z" fill="#FFFFFF" /></svg>