<?xml version="1.0" encoding="utf-8"?>
<svg version="1.1" xmlns:xlink="http://www.w3.org/1999/xlink" width="20px" height="20px" xmlns="http://www.w3.org/2000/svg">
  <g transform="matrix(1 0 0 1 -26 -184 )">
    <path d="M 8.33333333333338 9.1666666666668  L 8.33333333333338 12.5  L 11.6666666666666 10.8333333333332  L 8.33333333333338 9.1666666666668  Z M 6.66666666666662 8.1380208333332  L 13.3333333333334 4.8046875  L 13.3333333333334 11.8619791666668  L 6.66666666666662 15.1953125  L 6.66666666666662 8.1380208333332  Z M 16.1328125 13.5546875  C 16.7664930555556 12.4696180555555  17.0833333333334 11.2847222222223  17.0833333333334 10  C 17.0833333333334 8.71527777777766  16.7664930555556 7.53038194444447  16.1328125 6.4453125  C 15.4991319444444 5.36024305555553  14.6397569444444 4.50086805555553  13.5546875 3.8671875  C 12.4696180555556 3.23350694444447  11.2847222222222 2.9166666666668  10 2.9166666666668  C 8.71527777777782 2.9166666666668  7.53038194444444 3.23350694444447  6.4453125 3.8671875  C 5.36024305555556 4.50086805555553  4.50086805555556 5.36024305555553  3.8671875 6.4453125  C 3.23350694444444 7.53038194444447  2.91666666666662 8.71527777777766  2.91666666666662 10  C 2.91666666666662 11.2847222222223  3.23350694444444 12.4696180555555  3.8671875 13.5546875  C 4.50086805555556 14.6397569444445  5.36024305555556 15.4991319444445  6.4453125 16.1328125  C 7.53038194444444 16.7664930555555  8.71527777777782 17.0833333333332  10 17.0833333333332  C 11.2847222222222 17.0833333333332  12.4696180555556 16.7664930555555  13.5546875 16.1328125  C 14.6397569444444 15.4991319444445  15.4991319444444 14.6397569444445  16.1328125 13.5546875  Z M 18.6588541666666 4.98046875  C 19.5529513888889 6.51258680555553  20 8.18576388888894  20 10  C 20 11.8142361111111  19.5529513888889 13.4874131944445  18.6588541666666 15.01953125  C 17.7647569444444 16.5516493055555  16.5516493055556 17.7647569444445  15.01953125 18.6588541666668  C 13.4874131944444 19.5529513888889  11.8142361111111 20  10 20  C 8.18576388888888 20  6.51258680555556 19.5529513888889  4.98046875 18.6588541666668  C 3.44835069444444 17.7647569444445  2.23524305555556 16.5516493055555  1.34114583333338 15.01953125  C 0.447048611111117 13.4874131944445  0 11.8142361111111  0 10  C 0 8.18576388888894  0.447048611111117 6.51258680555553  1.34114583333338 4.98046875  C 2.23524305555556 3.44835069444447  3.44835069444444 2.23524305555553  4.98046875 1.3411458333332  C 6.51258680555556 0.447048611111065  8.18576388888888 0  10 0  C 11.8142361111111 0  13.4874131944444 0.447048611111065  15.01953125 1.3411458333332  C 16.5516493055556 2.23524305555553  17.7647569444444 3.44835069444447  18.6588541666666 4.98046875  Z " fill-rule="nonzero" fill="#aaaaaa" stroke="none" transform="matrix(1 0 0 1 26 184 )" />
  </g>
</svg>