<?xml version="1.0" encoding="utf-8"?>
<svg version="1.1" xmlns:xlink="http://www.w3.org/1999/xlink" width="96px" height="96px" xmlns="http://www.w3.org/2000/svg">
  <g transform="matrix(1 0 0 1 -591 -187 )">
    <path d="M 79.125 40.6875  C 79.875 39.9375  80.25 39  80.25 37.875  C 80.25 36.7083333333333  79.875 35.75  79.125 35  L 73.4375 29.375  C 72.6458333333333 28.5833333333333  71.7083333333333 28.1875  70.625 28.1875  C 69.5416666666667 28.1875  68.6041666666667 28.5833333333333  67.8125 29.375  L 42.3125 54.8125  L 28.1875 40.6875  C 27.3958333333333 39.8958333333333  26.4583333333333 39.5  25.375 39.5  C 24.2916666666667 39.5  23.3541666666667 39.8958333333333  22.5625 40.6875  L 16.875 46.3125  C 16.125 47.0625  15.75 48.0208333333333  15.75 49.1875  C 15.75 50.3125  16.125 51.25  16.875 52  L 39.5 74.625  C 40.2916666666667 75.4166666666667  41.2291666666667 75.8125  42.3125 75.8125  C 43.4375 75.8125  44.3958333333333 75.4166666666667  45.1875 74.625  L 79.125 40.6875  Z M 89.5625 23.90625  C 93.8541666666667 31.2604166666667  96 39.2916666666667  96 48  C 96 56.7083333333333  93.8541666666667 64.7395833333333  89.5625 72.09375  C 85.2708333333333 79.4479166666667  79.4479166666667 85.2708333333333  72.09375 89.5625  C 64.7395833333333 93.8541666666667  56.7083333333333 96  48 96  C 39.2916666666667 96  31.2604166666667 93.8541666666667  23.90625 89.5625  C 16.5520833333333 85.2708333333333  10.7291666666667 79.4479166666667  6.4375 72.09375  C 2.14583333333333 64.7395833333333  0 56.7083333333333  0 48  C 0 39.2916666666667  2.14583333333333 31.2604166666667  6.4375 23.90625  C 10.7291666666667 16.5520833333333  16.5520833333333 10.7291666666667  23.90625 6.4375  C 31.2604166666667 2.14583333333333  39.2916666666667 0  48 0  C 56.7083333333333 0  64.7395833333333 2.14583333333333  72.09375 6.4375  C 79.4479166666667 10.7291666666667  85.2708333333333 16.5520833333333  89.5625 23.90625  Z " fill-rule="nonzero" fill="#74b13e" stroke="none" transform="matrix(1 0 0 1 591 187 )" />
  </g>
</svg>