<?xml version="1.0" encoding="utf-8"?>
<svg version="1.1" xmlns:xlink="http://www.w3.org/1999/xlink" width="116px" height="116px" xmlns="http://www.w3.org/2000/svg">
  <g transform="matrix(1 0 0 1 -2395 -298 )">
    <path d="M 28.88671875 7.77864583333333  C 37.7730034722222 2.59288194444443  47.4774305555556 0  58 0  C 68.5225694444444 0  78.2269965277778 2.59288194444443  87.11328125 7.77864583333333  C 95.9995659722222 12.9644097222222  103.035590277778 20.0004340277778  108.221354166667 28.88671875  C 113.407118055556 37.7730034722222  116 47.4774305555555  116 58  C 116 68.5225694444444  113.407118055556 78.2269965277778  108.221354166667 87.11328125  C 103.035590277778 95.9995659722222  95.9995659722222 103.035590277778  87.11328125 108.221354166667  C 78.2269965277778 113.407118055556  68.5225694444444 116  58 116  C 47.4774305555556 116  37.7730034722222 113.407118055556  28.88671875 108.221354166667  C 20.0004340277778 103.035590277778  12.9644097222222 95.9995659722222  7.77864583333333 87.11328125  C 2.59288194444444 78.2269965277778  0 68.5225694444444  0 58  C 0 47.4774305555555  2.59288194444444 37.7730034722222  7.77864583333333 28.88671875  C 12.9644097222222 20.0004340277778  20.0004340277778 12.9644097222222  28.88671875 7.77864583333333  Z M 66.9869791666667 95.94921875  C 67.4401041666667 95.4709201388889  67.6666666666667 94.8793402777778  67 94.1744791666667  L 67 79.8255208333333  C 67.6666666666667 79.1206597222222  67.4401041666667 78.5290798611111  66.9869791666667 78.05078125  C 66.5338541666667 77.5724826388889  65.9800347222222 77.3333333333333  65.3255208333333 77  L 50.8255208333333 77  C 50.1710069444445 77.3333333333333  49.5920138888889 77.5850694444444  49.0885416666667 78.0885416666667  C 48.5850694444445 78.5920138888889  48.3333333333333 79.1710069444444  49 79.8255208333333  L 49 94.1744791666667  C 48.3333333333333 94.8289930555556  48.5850694444445 95.4079861111111  49.0885416666667 95.9114583333333  C 49.5920138888889 96.4149305555556  50.1710069444445 96.6666666666667  50.8255208333333 96  L 65.3255208333333 96  C 65.9800347222222 96.6666666666667  66.5338541666667 96.4275173611111  66.9869791666667 95.94921875  Z M 66.72265625 69.5169270833333  C 67.2009548611111 69.1393229166667  67.4652777777778 68.6987847222222  67.515625 68.1953125  L 68.875 21.296875  C 68.875 20.6927083333333  68.6232638888889 20.2395833333333  68.1197916666667 19.9375  C 67.6163194444444 19.5347222222222  67.0121527777778 19.3333333333333  66.3072916666667 20  L 49.6927083333333 20  C 48.9878472222222 19.3333333333333  48.3836805555556 19.5347222222222  47.8802083333333 19.9375  C 47.3767361111111 20.2395833333333  47.125 20.6927083333333  47.125 21.296875  L 48.4088541666667 68.1953125  C 48.4088541666667 68.6987847222222  48.6605902777778 69.1393229166667  49.1640625 69.5169270833333  C 49.6675347222222 69.89453125  50.2717013888889 70.0833333333333  50.9765625 70  L 64.9479166666667 70  C 65.6527777777778 70.0833333333333  66.2443576388889 69.89453125  66.72265625 69.5169270833333  Z " fill-rule="nonzero" fill="#efaa44" stroke="none" transform="matrix(1 0 0 1 2395 298 )" />
  </g>
</svg>