<svg xmlns="http://www.w3.org/2000/svg" width="16" height="17.651" viewBox="0 0 16 17.651">
  <defs>
    <style>
      .cls-1 {
        fill: #268dff;
      }

      .cls-2 {
        fill: #fc7265;
      }
    </style>
  </defs>
  <g id="CRM_icon_编辑" transform="translate(-211.528 -180.357)">
    <path id="路径_12" data-name="路径 12" class="cls-1" d="M213.886,195.3a2.905,2.905,0,0,1-1.937-.465,1.806,1.806,0,0,1-.421-1.308c0-1.519.8-4.641,1.979-5.781l6.694-6.666a2.563,2.563,0,0,1,3.579,0l2.4,2.405a2.577,2.577,0,0,1,0,3.586l-6.651,6.709C218.517,194.63,215.824,195.3,213.886,195.3Zm-.673-1.73c1.052.127,4.294-.3,5.052-1.1l6.651-6.708a.817.817,0,0,0,0-1.182l-2.4-2.405a.813.813,0,0,0-1.179,0l-6.693,6.666a10.221,10.221,0,0,0-1.431,4.726Zm0,0" transform="translate(0 0)"/>
    <path id="路径_13" data-name="路径 13" class="cls-2" d="M226.706,781.162H212.391a.844.844,0,0,1,0-1.688h14.315a.844.844,0,0,1,0,1.688Zm0,0" transform="translate(-0.02 -583.154)"/>
  </g>
</svg>
