<svg xmlns="http://www.w3.org/2000/svg" width="32" height="32" viewBox="0 0 32 32">
  <defs>
    <style>
      .cls-1 {
        fill: #fc7265;
      }

      .cls-2 {
        fill: #268dff;
      }
    </style>
  </defs>
  <g id="CRM_icon_添加" transform="translate(-181.617 -182.661)">
    <path id="路径_9" data-name="路径 9" class="cls-1" d="M337.085,474.379H322.522a1.9,1.9,0,0,1,0-3.8h14.564a1.9,1.9,0,0,1,0,3.8Zm0,0" transform="translate(-132.186 -273.821)"/>
    <path id="路径_10" data-name="路径 10" class="cls-1" d="M471.486,339.979a1.9,1.9,0,0,1-1.9-1.891V323.525a1.9,1.9,0,0,1,3.8,0v14.564a1.9,1.9,0,0,1-1.9,1.891Zm0,0" transform="translate(-273.869 -132.147)"/>
    <path id="路径_11" data-name="路径 11" class="cls-2" d="M197.617,214.661a16,16,0,1,1,16-16A16.018,16.018,0,0,1,197.617,214.661Zm0-28.864a12.862,12.862,0,1,0,12.862,12.862A12.875,12.875,0,0,0,197.617,185.8Zm0,.716"/>
  </g>
</svg>
