<svg xmlns="http://www.w3.org/2000/svg" width="16" height="13.601" viewBox="0 0 16 13.601">
  <defs>
    <style>
      .cls-1 {
        fill: #268dff;
      }

      .cls-2 {
        fill: #fc7265;
      }
    </style>
  </defs>
  <g id="上传" transform="translate(-0.502 -14.791)">
    <path id="路径_20" data-name="路径 20" class="cls-1" d="M.5,21.988a3.71,3.71,0,0,1,2.657-3.536,5.78,5.78,0,0,1,5.362-3.661,5.708,5.708,0,0,1,5.324,3.661A3.653,3.653,0,0,1,16.5,21.988,3.714,3.714,0,0,1,12.755,25.7a.772.772,0,0,1-.746-.745.734.734,0,0,1,.746-.746,2.23,2.23,0,0,0,2.265-2.217,2.134,2.134,0,0,0-.784-1.663L14.1,20.2a.674.674,0,0,0-.172-.134c-.038-.048-.124-.048-.172-.086h-.048c-.038-.048-.086-.048-.124-.086h-.048c-.038,0-.086-.048-.134-.048s-.086,0-.086-.038H13.2a.158.158,0,0,1-.134-.048h-.354a1.439,1.439,0,0,1-.086-.392c-.038,0-.038-.048-.038-.086a2.713,2.713,0,0,1-.086-.258c0-.048-.048-.048-.048-.1-.038-.086-.086-.172-.134-.258v-.086c-.038-.086-.124-.172-.172-.258a4.254,4.254,0,0,0-7.283,0l-.124.258c0,.029-.019.029-.029.057l-.019.029-.134.258v.1l-.124.258v.086a1.174,1.174,0,0,0-.1.392H3.943a.14.14,0,0,1-.124.048H3.733c-.038.029-.057.038-.067.038a.018.018,0,0,1-.029,0c-.038,0-.086.048-.124.048H3.427c-.048.038-.086.038-.134.086H3.245c-.038.038-.086.038-.124.086H3.073a1.742,1.742,0,0,1-.134.134.67.67,0,0,0-.172.124,2.093,2.093,0,0,0-.736,1.663,2.219,2.219,0,0,0,2.217,2.217.733.733,0,0,1,.784.746.768.768,0,0,1-.784.745A3.745,3.745,0,0,1,.5,21.988Z" transform="translate(0 0)"/>
    <path id="路径_21" data-name="路径 21" class="cls-2" d="M63.07,98.465a.981.981,0,0,1,.172-.526l2.265-2.485a.787.787,0,0,1,.564-.22.88.88,0,0,1,.574.22l2.217,2.485a.73.73,0,0,1,.22.526.76.76,0,0,1-.784.736.735.735,0,0,1-.526-.258L66.817,97.9v3.747a.715.715,0,0,1-.746.736.7.7,0,0,1-.736-.736V97.9l-.956,1.042a.843.843,0,0,1-.573.258A.756.756,0,0,1,63.07,98.465Z" transform="translate(-57.55 -73.991)"/>
  </g>
</svg>
